<?xml version="1.0" encoding="utf-8"?>
<!-- Generator: Adobe Illustrator 26.1.0, SVG Export Plug-In . SVG Version: 6.00 Build 0)  -->
<svg version="1.1" id="Layer_1" xmlns="http://www.w3.org/2000/svg" xmlns:xlink="http://www.w3.org/1999/xlink" x="0px" y="0px"
	 viewBox="0 0 118.39 50" style="enable-background:new 0 0 118.39 50;" xml:space="preserve">
<style type="text/css">
	.st0{fill-rule:evenodd;clip-rule:evenodd;fill:#F0AAB8;}
</style>
<g>
	<path d="M38.74,16.64h-0.36c-0.52,0-0.97-0.19-1.35-0.55c-0.42-0.38-0.67-0.9-0.77-1.54c-0.04,0.19-0.21,0.36-0.5,0.52
		c-0.33,0.2-0.68,0.29-1.06,0.29c-0.59,0-1.07-0.2-1.46-0.58c-0.36-0.35-0.55-0.8-0.55-1.34c0-0.35,0.09-0.71,0.29-1.06
		c0.65-1.16,1.93-2.07,3.84-2.76c0.16-0.06,0.32-0.23,0.47-0.51c0.08-0.19,0.17-0.36,0.26-0.55c0.07-0.12,0.18-0.19,0.32-0.19
		c0.23,0,0.35,0.11,0.35,0.34c0,0.06-0.01,0.12-0.04,0.18c-0.76,1.68-1.13,3.26-1.13,4.73c0,1.45,0.49,2.17,1.48,2.17h0.22
		L38.74,16.64L38.74,16.64z M34.56,8.08c-0.05,0.24-0.18,0.47-0.39,0.67c-0.21,0.21-0.42,0.29-0.64,0.24
		c-0.35-0.06-0.51-0.27-0.51-0.64c0-0.12,0.02-0.26,0.07-0.4c0.07-0.22,0.22-0.43,0.46-0.61s0.45-0.24,0.64-0.21
		C34.54,7.22,34.67,7.52,34.56,8.08z M36.72,10.47c-1.64,0.7-2.67,1.47-3.09,2.3c-0.11,0.21-0.16,0.43-0.16,0.64
		c0,0.32,0.12,0.58,0.35,0.78c0.23,0.21,0.52,0.31,0.88,0.31c0.77,0,1.28-0.37,1.52-1.13C36.29,12.35,36.46,11.38,36.72,10.47z
		 M36.48,8.09c-0.04,0.24-0.17,0.47-0.37,0.67c-0.21,0.21-0.42,0.29-0.64,0.24c-0.53-0.09-0.69-0.45-0.48-1.06
		c0.09-0.25,0.24-0.46,0.47-0.62c0.21-0.16,0.43-0.21,0.64-0.18C36.45,7.22,36.58,7.53,36.48,8.09z"/>
	<path d="M45.86,16.64h-0.52c-1.12,0-2.13-0.41-3.03-1.23c-1.39,0.82-2.48,1.23-3.29,1.23h-0.64v-0.86H39
		c0.31,0,0.78-0.11,1.41-0.33c0.63-0.21,1.09-0.44,1.38-0.65c-0.25-0.35-0.37-0.78-0.37-1.31c0-0.82,0.24-1.59,0.73-2.3
		c0.68-1.01,1.48-1.5,2.41-1.5c0.22,0,0.43,0.04,0.61,0.12c0.48,0.22,0.72,0.68,0.72,1.36c0,0.49-0.13,0.97-0.4,1.46
		c-0.55,1-1.37,1.77-2.46,2.33c0.68,0.54,1.54,0.81,2.57,0.81h0.28L45.86,16.64L45.86,16.64z M44.7,12.31
		c0.22-0.43,0.34-0.81,0.34-1.16c0-0.33-0.11-0.53-0.34-0.62c-0.1-0.04-0.21-0.07-0.33-0.07c-0.6,0-1.1,0.32-1.52,0.96
		c-0.42,0.64-0.63,1.34-0.63,2.13c0,0.38,0.08,0.67,0.25,0.85c0.37-0.15,0.81-0.47,1.31-0.95C44.23,13.03,44.53,12.64,44.7,12.31z
		 M44.18,7.23c-0.04,0.25-0.17,0.48-0.37,0.66c-0.21,0.21-0.44,0.31-0.65,0.26c-0.35-0.06-0.51-0.27-0.51-0.64
		c0-0.13,0.03-0.27,0.07-0.4c0.07-0.22,0.22-0.43,0.46-0.6c0.23-0.18,0.45-0.24,0.64-0.21C44.16,6.38,44.28,6.68,44.18,7.23z
		 M46.09,7.23c-0.04,0.25-0.17,0.48-0.37,0.68c-0.21,0.21-0.42,0.29-0.64,0.24c-0.53-0.1-0.69-0.46-0.48-1.06
		c0.09-0.25,0.24-0.46,0.47-0.62c0.21-0.16,0.43-0.21,0.64-0.18C46.06,6.38,46.19,6.68,46.09,7.23z"/>
	<path d="M49.87,16.64h-0.24c-0.51,0-0.92-0.19-1.21-0.56c-0.26-0.32-0.39-0.69-0.39-1.13c-0.16,0.39-0.45,0.77-0.85,1.12
		c-0.45,0.38-0.87,0.58-1.25,0.58h-0.45v-0.87H46c0.5,0,0.96-0.35,1.37-1.07c0.41-0.72,0.73-1.68,0.93-2.9
		c0.04-0.21,0.16-0.33,0.37-0.33c0.25,0,0.37,0.12,0.37,0.37c0,0.04-0.01,0.08-0.03,0.12c-0.21,0.9-0.32,1.64-0.32,2.23
		c0,1.05,0.32,1.57,0.96,1.57h0.19v0.87H49.87z M47.63,19.32c-0.05,0.24-0.18,0.47-0.39,0.67c-0.21,0.21-0.42,0.29-0.63,0.26
		c-0.35-0.07-0.52-0.28-0.52-0.64c0-0.13,0.03-0.27,0.07-0.4c0.07-0.22,0.22-0.43,0.46-0.6c0.23-0.18,0.45-0.24,0.64-0.21
		C47.61,18.46,47.74,18.77,47.63,19.32z M49.55,19.34c-0.04,0.25-0.16,0.48-0.36,0.66c-0.21,0.21-0.43,0.31-0.65,0.26
		c-0.53-0.1-0.69-0.46-0.48-1.06c0.09-0.26,0.25-0.47,0.47-0.63c0.22-0.16,0.43-0.21,0.63-0.18C49.51,18.46,49.64,18.78,49.55,19.34
		z"/>
	<path d="M53.42,10.55c-0.21,1.66-0.63,3.09-1.28,4.3c-0.64,1.2-1.33,1.79-2.04,1.79h-0.54v-0.86h0.54c0.49,0,0.98-0.49,1.46-1.46
		c0.49-1.01,0.84-2.26,1.06-3.77c0.04-0.26,0.2-0.39,0.45-0.39C53.34,10.16,53.46,10.29,53.42,10.55z M54.31,6.31
		c-0.04,0.25-0.18,0.49-0.41,0.72c-0.23,0.23-0.47,0.33-0.7,0.3C52.77,7.25,52.55,7,52.55,6.57c0-0.15,0.03-0.3,0.08-0.45
		c0.27-0.67,0.68-0.96,1.24-0.87C54.3,5.31,54.44,5.67,54.31,6.31z"/>
	<path d="M59.33,3.22l-2.85,1.05c-0.06,0.02-0.12,0.03-0.18,0.03c-0.24,0-0.36-0.11-0.36-0.34c0-0.14,0.08-0.24,0.24-0.29l1.06-0.36
		c-0.19-0.01-0.37-0.08-0.58-0.24c-0.2-0.15-0.3-0.32-0.3-0.5c0-0.24,0.18-0.56,0.53-0.94c0.35-0.38,0.72-0.63,1.1-0.74
		c0.16-0.06,0.34-0.05,0.52,0.03c0.19,0.08,0.28,0.19,0.28,0.32c0,0.24-0.13,0.36-0.39,0.36c-0.04,0-0.08-0.01-0.14-0.03
		c-0.05-0.02-0.08-0.03-0.11-0.03c-0.18,0-0.41,0.11-0.7,0.34c-0.3,0.24-0.44,0.43-0.44,0.59c0,0.28,0.35,0.43,1.03,0.43
		c0.19,0,0.35-0.03,0.49-0.07l0.54-0.19c0.04-0.02,0.07-0.03,0.1-0.03c0.21,0,0.33,0.12,0.33,0.36C59.51,3.09,59.45,3.18,59.33,3.22
		z M64.05,5.09c-0.17,1.17-0.25,3.38-0.25,6.67c0,1.31-0.44,2.43-1.31,3.37c-0.92,1.01-2.1,1.5-3.51,1.5
		c-1.15,0-1.89-0.12-2.21-0.37c-0.27-0.21-0.4-0.41-0.4-0.63c0-0.12,0.07-0.18,0.21-0.18c-0.04,0,0.25,0.06,0.85,0.16
		s1.22,0.16,1.87,0.16c0.97,0,1.81-0.4,2.53-1.2c0.75-0.84,1.12-1.87,1.12-3.1c0-3.25,0.08-5.42,0.25-6.51
		c0.04-0.19,0.18-0.28,0.44-0.28C63.96,4.7,64.09,4.83,64.05,5.09z M59.93,12.67c0.03,0.33-0.13,0.49-0.48,0.49
		c-0.27,0-0.4-0.14-0.41-0.43c-0.13-2.58-0.61-4.99-1.41-7.24c-0.02-0.04-0.03-0.08-0.03-0.12c0-0.21,0.12-0.33,0.37-0.33
		c0.25,0,0.43,0.13,0.52,0.4C59.25,7.47,59.73,9.88,59.93,12.67z"/>
	<path d="M68.5,5.3c-0.08,2.22-0.22,4.02-0.43,5.4c-0.25,1.69-0.7,3.57-1.34,5.63c-0.06,0.21-0.19,0.3-0.39,0.3
		c-0.24,0-0.36-0.14-0.36-0.43c0-0.09,0.02-0.19,0.05-0.29c1.03-3.4,1.6-6.98,1.71-10.74c0.01-0.27,0.13-0.4,0.37-0.4
		C68.39,4.78,68.52,4.96,68.5,5.3z"/>
	<path d="M82.7,16.64h-0.36c-0.52,0-0.97-0.19-1.35-0.55c-0.42-0.38-0.67-0.9-0.77-1.54c-0.04,0.19-0.21,0.36-0.5,0.52
		c-0.33,0.2-0.68,0.29-1.06,0.29c-0.59,0-1.07-0.2-1.46-0.58c-0.36-0.35-0.55-0.8-0.55-1.34c0-0.35,0.09-0.71,0.29-1.06
		c0.65-1.16,1.93-2.07,3.84-2.76c0.16-0.06,0.32-0.23,0.47-0.51c0.08-0.19,0.17-0.36,0.26-0.55c0.07-0.12,0.18-0.19,0.32-0.19
		c0.23,0,0.35,0.11,0.35,0.34c0,0.06-0.01,0.12-0.04,0.18C81.37,10.56,81,12.14,81,13.61c0,1.45,0.49,2.17,1.48,2.17h0.22
		L82.7,16.64L82.7,16.64z M78.52,8.08c-0.05,0.24-0.18,0.47-0.39,0.67c-0.21,0.21-0.42,0.29-0.64,0.24
		c-0.35-0.06-0.51-0.27-0.51-0.64c0-0.12,0.02-0.26,0.07-0.4c0.07-0.22,0.22-0.43,0.46-0.61c0.23-0.18,0.45-0.24,0.64-0.21
		C78.5,7.22,78.63,7.52,78.52,8.08z M80.68,10.47c-1.64,0.7-2.67,1.47-3.09,2.3c-0.11,0.21-0.16,0.43-0.16,0.64
		c0,0.32,0.12,0.58,0.35,0.78c0.23,0.21,0.52,0.31,0.88,0.31c0.77,0,1.28-0.37,1.52-1.13C80.24,12.35,80.41,11.38,80.68,10.47z
		 M80.44,8.09c-0.04,0.24-0.17,0.47-0.37,0.67c-0.21,0.21-0.42,0.29-0.64,0.24c-0.53-0.09-0.69-0.45-0.48-1.06
		c0.09-0.25,0.24-0.46,0.47-0.62c0.21-0.16,0.43-0.21,0.64-0.18C80.4,7.22,80.53,7.53,80.44,8.09z"/>
	<path d="M93.79,16.64H93.6c-1.04,0-1.67-0.54-1.9-1.63c-0.46,1.08-1.13,1.63-2.01,1.63c-0.78,0-1.26-0.51-1.46-1.54
		c-0.08,0.37-0.29,0.72-0.62,1.03c-0.35,0.35-0.74,0.51-1.16,0.51c-0.45,0-0.83-0.15-1.14-0.46c-0.31-0.31-0.46-0.66-0.46-1.08
		c-0.21,0.37-0.52,0.72-0.94,1.03c-0.45,0.35-0.86,0.51-1.21,0.51h-0.4v-0.86h0.45c0.42,0,0.83-0.26,1.23-0.79
		c0.52-0.69,0.89-1.73,1.12-3.09c0.04-0.2,0.15-0.29,0.35-0.29c0.36,0,0.49,0.13,0.41,0.39c-0.23,0.77-0.35,1.48-0.35,2.12
		c0,1.1,0.33,1.65,0.99,1.65c0.42,0,0.8-0.35,1.17-1.06c0.34-0.68,0.59-1.59,0.77-2.7c0.04-0.24,0.19-0.36,0.44-0.36
		c0.29,0,0.41,0.11,0.35,0.33c-0.21,0.92-0.3,1.68-0.3,2.31c0,1,0.27,1.49,0.8,1.49c0.93,0,1.61-1.28,2.02-3.83
		c0.04-0.21,0.18-0.33,0.44-0.33c0.32,0,0.45,0.11,0.4,0.33c-0.17,0.73-0.25,1.36-0.25,1.92c0,1.27,0.43,1.9,1.29,1.9h0.14
		L93.79,16.64L93.79,16.64z"/>
	<path d="M103.21,16.64h-0.35c-0.35,0-0.75-0.14-1.21-0.43c-0.5-0.3-0.81-0.63-0.92-0.96c0,0.55-0.17,1-0.5,1.33
		c-0.29,0.3-0.63,0.45-1.01,0.45c-0.62,0-1.14-0.23-1.55-0.71c-0.41-0.48-0.63-1.06-0.63-1.77c-0.85,1.4-1.89,2.09-3.1,2.09h-0.54
		v-0.85h0.66c0.77,0,1.55-0.59,2.36-1.76c1.12-1.61,1.88-2.57,2.27-2.89c-0.07-0.13-0.11-0.26-0.11-0.37c0-0.32,0.15-0.48,0.44-0.48
		c0.19,0,0.34,0.11,0.45,0.33c0.76,1.4,1.23,2.56,1.43,3.49c0.08,0.42,0.34,0.8,0.75,1.16c0.41,0.35,0.86,0.52,1.34,0.52h0.22v0.85
		H103.21z M100.03,14.75c0-0.83-0.33-1.78-0.98-2.86c-0.86,0.52-1.29,1.34-1.29,2.44c0,0.5,0.12,0.92,0.35,1.28
		c0.25,0.38,0.59,0.58,1.02,0.58c0.26,0,0.48-0.15,0.64-0.45C99.94,15.43,100.03,15.11,100.03,14.75z"/>
	<path d="M108.24,16.64h-0.24c-0.69,0-1.24-0.25-1.64-0.77c-0.35-0.44-0.54-0.99-0.59-1.67c-0.71,1.62-1.55,2.44-2.51,2.44h-0.4
		v-0.86h0.4c0.51,0,1.02-0.46,1.53-1.36c0.56-1.01,0.92-2.3,1.09-3.87c0.02-0.92,0.04-1.84,0.07-2.75c0.06-1.42,0.24-2.13,0.56-2.13
		c0.27,0,0.4,0.15,0.4,0.44c0,1.59-0.07,3.07-0.21,4.44c-0.04,0.24-0.08,0.62-0.15,1.12c-0.07,0.5-0.1,0.96-0.1,1.38
		c0,1.82,0.53,2.74,1.61,2.74h0.19L108.24,16.64L108.24,16.64z"/>
	<path d="M111.91,6.1c0,2-0.07,3.48-0.19,4.44c-0.23,1.71-0.66,3.14-1.28,4.28c-0.65,1.2-1.38,1.81-2.19,1.81h-0.4v-0.86h0.4
		c0.54,0,1.06-0.49,1.58-1.48c0.5-0.98,0.87-2.23,1.07-3.75c0.02-0.92,0.04-1.85,0.05-2.77c0.05-1.41,0.23-2.11,0.55-2.11
		C111.77,5.67,111.91,5.82,111.91,6.1z"/>
	<path d="M116.38,5.3c-0.08,2.22-0.22,4.02-0.43,5.4c-0.25,1.69-0.7,3.57-1.34,5.63c-0.06,0.21-0.19,0.3-0.39,0.3
		c-0.24,0-0.36-0.14-0.36-0.43c0-0.09,0.02-0.19,0.05-0.29c1.03-3.4,1.6-6.98,1.71-10.74c0.01-0.27,0.13-0.4,0.37-0.4
		C116.27,4.78,116.4,4.96,116.38,5.3z"/>
</g>
<g>
	<path d="M48.51,30.28c-0.02,0.08-0.06,0.16-0.12,0.21c-0.07,0.05-0.13,0.07-0.21,0.07c-0.11,0-0.21-0.04-0.27-0.11
		c-0.07-0.07-0.1-0.16-0.1-0.25c0-0.09,0.01-0.19,0.03-0.28c0.02-0.09,0.03-0.18,0.03-0.27c0-0.46-0.14-0.88-0.43-1.24
		c-0.28-0.36-0.68-0.67-1.2-0.92c-0.52-0.25-1.16-0.44-1.9-0.57s-1.58-0.2-2.49-0.2c-0.7,0-1.41,0.05-2.12,0.14
		c-0.71,0.09-1.39,0.22-2.04,0.4s-1.26,0.39-1.83,0.65c-0.57,0.26-1.06,0.56-1.48,0.91c-0.42,0.35-0.75,0.73-0.99,1.15
		c-0.24,0.42-0.36,0.88-0.36,1.38c0,0.38,0.08,0.73,0.25,1.02s0.39,0.55,0.68,0.77s0.63,0.4,1.03,0.56
		c0.39,0.16,0.82,0.28,1.28,0.39c0.46,0.1,0.94,0.19,1.44,0.25c0.49,0.07,1,0.12,1.5,0.17l1.46,0.12c0.73,0.07,1.37,0.13,1.95,0.2
		c0.57,0.07,1.08,0.16,1.51,0.26c0.73,0.19,1.26,0.45,1.61,0.78c0.35,0.34,0.52,0.79,0.52,1.36c0,0.55-0.15,1.04-0.46,1.45
		c-0.3,0.42-0.72,0.77-1.24,1.06c-0.52,0.28-1.14,0.49-1.84,0.64c-0.7,0.15-1.45,0.21-2.25,0.21c-0.87,0-1.63-0.06-2.3-0.18
		c-0.66-0.12-1.21-0.24-1.65-0.39c-0.45-0.14-0.78-0.27-1.02-0.39c-0.23-0.12-0.36-0.19-0.38-0.2c-0.11-0.07-0.17-0.17-0.17-0.3
		c0-0.11,0.04-0.2,0.11-0.26s0.16-0.1,0.24-0.1c0.07,0,0.13,0.02,0.19,0.06c0.01,0,0.11,0.06,0.33,0.17s0.52,0.23,0.94,0.36
		c0.42,0.13,0.94,0.25,1.56,0.36c0.62,0.11,1.34,0.16,2.16,0.16c0.81,0,1.53-0.07,2.16-0.2c0.63-0.13,1.15-0.32,1.58-0.55
		s0.75-0.51,0.96-0.83c0.21-0.32,0.33-0.66,0.33-1.04c0-0.22-0.04-0.41-0.12-0.57c-0.07-0.16-0.19-0.3-0.33-0.42
		c-0.14-0.11-0.31-0.21-0.49-0.3c-0.2-0.08-0.4-0.15-0.63-0.21c-0.24-0.07-0.49-0.11-0.78-0.16c-0.27-0.05-0.56-0.08-0.85-0.11
		c-0.29-0.03-0.58-0.06-0.88-0.08c-0.29-0.03-0.58-0.05-0.87-0.07l-1.46-0.12c-1.15-0.09-2.15-0.24-3.01-0.44
		c-0.86-0.2-1.57-0.46-2.14-0.77c-0.57-0.31-0.99-0.69-1.28-1.12c-0.28-0.44-0.43-0.94-0.43-1.52c0-0.6,0.13-1.14,0.4-1.63
		c0.27-0.49,0.63-0.94,1.1-1.34c0.47-0.4,1.01-0.75,1.62-1.04c0.63-0.29,1.29-0.54,1.99-0.74c0.71-0.2,1.44-0.35,2.19-0.44
		s1.5-0.15,2.23-0.15c0.92,0,1.71,0.06,2.39,0.17c0.68,0.11,1.26,0.25,1.75,0.43c0.49,0.18,0.88,0.37,1.19,0.59
		c0.31,0.22,0.56,0.44,0.75,0.65c0.45,0.52,0.67,1.12,0.67,1.79C48.58,29.87,48.56,30.08,48.51,30.28z"/>
	<path d="M56.7,30.75c0,0.1-0.04,0.18-0.1,0.24c-0.07,0.06-0.16,0.09-0.25,0.09h-4.8v0.1c0,0.38-0.03,0.79-0.08,1.23
		c-0.06,0.44-0.13,0.87-0.23,1.3c-0.09,0.43-0.21,0.85-0.33,1.26c-0.12,0.41-0.25,0.78-0.38,1.14c-0.13,0.35-0.26,0.64-0.38,0.91
		c-0.13,0.25-0.24,0.45-0.34,0.57c0.08,0.29,0.18,0.56,0.29,0.81c0.11,0.25,0.24,0.47,0.38,0.65s0.3,0.34,0.46,0.44
		c0.17,0.11,0.34,0.16,0.53,0.16c0.22,0,0.44-0.09,0.65-0.28c0.21-0.19,0.42-0.41,0.61-0.66c0.19-0.25,0.35-0.51,0.49-0.78
		c0.14-0.26,0.24-0.48,0.31-0.63c0.07-0.15,0.18-0.22,0.33-0.22c0.1,0,0.2,0.04,0.26,0.11c0.07,0.07,0.1,0.16,0.1,0.24
		c0,0.05-0.01,0.08-0.03,0.13s-0.07,0.15-0.14,0.3c-0.07,0.16-0.17,0.34-0.28,0.55c-0.12,0.21-0.25,0.43-0.41,0.65
		c-0.16,0.23-0.33,0.44-0.52,0.63c-0.2,0.19-0.4,0.35-0.62,0.48c-0.22,0.13-0.46,0.19-0.7,0.19c-0.44,0-0.83-0.14-1.18-0.43
		c-0.35-0.28-0.64-0.68-0.89-1.2c-0.24-0.51-0.43-1.12-0.55-1.82c-0.13-0.7-0.19-1.47-0.19-2.3c0-0.21,0-0.45,0.01-0.74
		c0.01-0.28,0.02-0.58,0.04-0.89c0.02-0.31,0.05-0.63,0.08-0.96c0.04-0.33,0.08-0.65,0.15-0.97h-3.4c-0.1,0-0.19-0.03-0.25-0.09
		c-0.07-0.06-0.1-0.14-0.1-0.24c0-0.1,0.04-0.18,0.1-0.24c0.07-0.06,0.16-0.09,0.25-0.09h3.56c0.07-0.22,0.14-0.44,0.22-0.63
		c0.08-0.19,0.19-0.35,0.29-0.49c0.11-0.14,0.23-0.24,0.37-0.33c0.14-0.07,0.29-0.12,0.45-0.12s0.3,0.04,0.41,0.12
		c0.12,0.07,0.21,0.19,0.3,0.33c0.08,0.14,0.15,0.3,0.2,0.49c0.05,0.19,0.08,0.4,0.11,0.63h4.84c0.1,0,0.19,0.03,0.25,0.09
		C56.66,30.56,56.7,30.64,56.7,30.75z M49.58,36.64c0.19-0.42,0.36-0.87,0.51-1.34c0.16-0.49,0.29-0.97,0.4-1.47
		c0.11-0.49,0.2-0.97,0.25-1.45c0.06-0.48,0.09-0.91,0.09-1.31h-1.12c-0.08,0.39-0.16,0.88-0.21,1.46
		c-0.06,0.58-0.08,1.28-0.08,2.11c0,0.46,0.01,0.85,0.04,1.16C49.48,36.11,49.52,36.39,49.58,36.64z M50.45,29.56
		c-0.06,0-0.14,0.07-0.24,0.19c-0.11,0.12-0.21,0.35-0.32,0.66h0.91c-0.03-0.26-0.07-0.48-0.14-0.63
		C50.59,29.64,50.53,29.56,50.45,29.56z"/>
	<path d="M57.08,40.36c0.22-0.22,0.45-0.45,0.67-0.67c0.22-0.23,0.45-0.48,0.66-0.73c0.21-0.25,0.41-0.51,0.6-0.79
		c0.19-0.27,0.35-0.57,0.49-0.88c0.03-0.07,0.07-0.12,0.13-0.16c0.06-0.04,0.12-0.06,0.19-0.06c0.1,0,0.2,0.04,0.26,0.11
		c0.07,0.07,0.1,0.16,0.1,0.25c0,0.05-0.01,0.09-0.03,0.14c-0.2,0.41-0.42,0.78-0.67,1.13c-0.25,0.34-0.51,0.66-0.79,0.97
		c-0.28,0.31-0.56,0.61-0.84,0.89c-0.28,0.29-0.55,0.58-0.81,0.87c-0.03,0.44-0.03,0.87,0,1.31c0.03,0.44,0.04,0.91,0.04,1.4
		c0,0.4-0.01,0.8-0.04,1.21c-0.03,0.4-0.07,0.79-0.12,1.16c-0.06,0.37-0.13,0.72-0.23,1.04c-0.09,0.32-0.22,0.6-0.37,0.84
		c-0.15,0.23-0.33,0.42-0.53,0.56c-0.21,0.14-0.44,0.21-0.71,0.21c-0.45,0-0.79-0.16-1.04-0.47c-0.24-0.31-0.36-0.74-0.36-1.3
		c0-0.3,0.04-0.63,0.1-0.97s0.16-0.71,0.28-1.07c0.12-0.37,0.26-0.75,0.43-1.12c0.17-0.38,0.35-0.75,0.54-1.11
		c0.2-0.36,0.4-0.7,0.63-1.03s0.45-0.62,0.67-0.89c0.01-0.3,0.03-0.62,0.05-0.94s0.04-0.63,0.06-0.91c-0.17,0.29-0.36,0.52-0.61,0.7
		c-0.24,0.18-0.51,0.26-0.8,0.26c-0.48,0-0.86-0.16-1.13-0.49c-0.27-0.32-0.41-0.77-0.41-1.33c0-0.41,0.04-0.78,0.12-1.12
		c0.07-0.34,0.17-0.63,0.25-0.87c0.09-0.24,0.18-0.43,0.25-0.56c0.07-0.13,0.11-0.19,0.11-0.19c0.07-0.11,0.17-0.16,0.29-0.16
		c0.1,0,0.2,0.04,0.26,0.11c0.07,0.07,0.1,0.16,0.1,0.25c0,0.07-0.02,0.13-0.06,0.19c0.01-0.01-0.03,0.05-0.09,0.16
		c-0.07,0.11-0.14,0.27-0.21,0.48c-0.07,0.21-0.15,0.46-0.21,0.75c-0.07,0.29-0.1,0.61-0.1,0.95c0,0.35,0.07,0.62,0.19,0.81
		c0.13,0.2,0.33,0.29,0.62,0.29c0.36,0,0.68-0.27,0.97-0.8c0.29-0.53,0.53-1.31,0.74-2.33c0.01-0.08,0.05-0.15,0.11-0.21
		c0.07-0.06,0.14-0.08,0.22-0.08c0.1,0,0.19,0.04,0.25,0.1c0.07,0.07,0.1,0.16,0.1,0.25c0,0.02-0.01,0.13-0.04,0.34
		c-0.03,0.21-0.06,0.48-0.09,0.82c-0.04,0.34-0.07,0.74-0.11,1.19C57.14,39.37,57.1,39.84,57.08,40.36z M56.33,42.36
		c-0.28,0.41-0.54,0.84-0.78,1.3c-0.23,0.46-0.44,0.91-0.61,1.35s-0.3,0.88-0.4,1.29c-0.09,0.41-0.14,0.78-0.14,1.1
		c0,0.33,0.06,0.59,0.16,0.78c0.1,0.19,0.28,0.28,0.51,0.28c0.21,0,0.39-0.1,0.55-0.31s0.3-0.49,0.41-0.88
		c0.11-0.38,0.2-0.84,0.25-1.38c0.06-0.54,0.08-1.15,0.08-1.81c0-0.27-0.01-0.54-0.02-0.82C56.34,42.97,56.33,42.68,56.33,42.36z"/>
	<path d="M64.9,37.6c-0.07,0.15-0.16,0.32-0.26,0.51c-0.1,0.2-0.22,0.4-0.35,0.62s-0.28,0.43-0.45,0.63
		c-0.17,0.21-0.35,0.4-0.53,0.57c-0.2,0.17-0.4,0.3-0.62,0.41c-0.21,0.1-0.45,0.16-0.7,0.16c-0.38,0-0.7-0.11-0.97-0.35
		c-0.27-0.23-0.5-0.54-0.69-0.92c-0.19-0.38-0.35-0.81-0.46-1.29c-0.12-0.49-0.21-0.97-0.27-1.48c-0.07-0.5-0.1-0.99-0.13-1.47
		c-0.02-0.48-0.04-0.9-0.04-1.26c0-0.53,0.02-1.08,0.06-1.64c0.04-0.57,0.09-1.12,0.17-1.66s0.17-1.06,0.29-1.54
		s0.25-0.92,0.42-1.28c0.16-0.36,0.35-0.65,0.55-0.87c0.21-0.21,0.45-0.32,0.71-0.32c0.21,0,0.39,0.05,0.56,0.15
		c0.17,0.09,0.31,0.26,0.42,0.48c0.11,0.22,0.21,0.5,0.26,0.86c0.07,0.35,0.09,0.78,0.09,1.3c0,0.63-0.07,1.28-0.2,1.95
		c-0.13,0.67-0.31,1.34-0.54,2.03c-0.22,0.68-0.49,1.36-0.8,2.04c-0.31,0.68-0.64,1.34-0.99,1.98c0.16,0.8,0.37,1.43,0.63,1.89
		c0.26,0.46,0.58,0.69,0.95,0.69c0.25,0,0.49-0.1,0.73-0.3s0.45-0.43,0.64-0.71c0.2-0.27,0.36-0.55,0.51-0.83
		c0.15-0.28,0.26-0.5,0.35-0.67c0.03-0.07,0.07-0.11,0.13-0.15c0.06-0.04,0.12-0.06,0.19-0.06c0.1,0,0.2,0.04,0.26,0.11
		c0.07,0.07,0.1,0.16,0.1,0.25C64.94,37.49,64.93,37.54,64.9,37.6z M60.16,33.79c0,0.4,0.01,0.79,0.03,1.17s0.05,0.73,0.07,1.07
		c0.26-0.51,0.51-1.06,0.76-1.63c0.24-0.58,0.45-1.16,0.63-1.76c0.19-0.6,0.33-1.18,0.44-1.76s0.17-1.14,0.17-1.67
		c0-0.75-0.06-1.28-0.18-1.6c-0.12-0.32-0.28-0.49-0.49-0.49c-0.13,0-0.26,0.09-0.38,0.27c-0.12,0.19-0.24,0.43-0.35,0.75
		c-0.11,0.32-0.21,0.69-0.29,1.12c-0.08,0.43-0.16,0.89-0.22,1.38c-0.06,0.49-0.1,1.01-0.14,1.54
		C60.17,32.73,60.16,33.27,60.16,33.79z"/>
	<path d="M65.8,32.79c0,0.24-0.08,0.44-0.25,0.61c-0.17,0.17-0.37,0.25-0.61,0.25c-0.24,0-0.45-0.08-0.61-0.25
		c-0.17-0.17-0.25-0.37-0.25-0.61c0-0.12,0.02-0.23,0.07-0.34s0.1-0.2,0.19-0.27c0.07-0.07,0.17-0.14,0.27-0.19
		c0.1-0.05,0.21-0.07,0.34-0.07c0.12,0,0.23,0.02,0.34,0.07c0.1,0.05,0.2,0.1,0.27,0.19c0.07,0.07,0.14,0.17,0.19,0.27
		C65.78,32.56,65.8,32.67,65.8,32.79z M64.26,38.34c0-0.91,0.06-1.81,0.17-2.72c0.01-0.08,0.06-0.17,0.12-0.23
		c0.07-0.07,0.15-0.1,0.26-0.1c0.09,0,0.18,0.04,0.23,0.11c0.07,0.07,0.09,0.16,0.09,0.25c0,0.04-0.01,0.15-0.03,0.34
		c-0.02,0.19-0.04,0.41-0.06,0.67c-0.02,0.26-0.04,0.54-0.06,0.83c-0.02,0.29-0.03,0.56-0.03,0.81c0,0.34,0.04,0.61,0.1,0.81
		c0.07,0.21,0.15,0.36,0.25,0.48c0.1,0.11,0.21,0.19,0.33,0.22c0.11,0.04,0.22,0.06,0.34,0.06c0.18,0,0.35-0.07,0.55-0.19
		c0.19-0.13,0.38-0.3,0.58-0.53c0.2-0.22,0.4-0.5,0.6-0.82c0.21-0.32,0.4-0.67,0.6-1.06c0.03-0.07,0.07-0.11,0.13-0.15
		c0.06-0.04,0.12-0.06,0.19-0.06c0.1,0,0.19,0.04,0.25,0.11c0.07,0.07,0.1,0.16,0.1,0.24c0,0.07-0.01,0.11-0.04,0.16
		c-0.07,0.15-0.17,0.32-0.28,0.53c-0.11,0.21-0.24,0.42-0.39,0.64c-0.15,0.22-0.31,0.44-0.48,0.65c-0.18,0.21-0.35,0.41-0.55,0.59
		c-0.2,0.18-0.4,0.32-0.62,0.42c-0.21,0.11-0.43,0.16-0.65,0.16c-0.28,0-0.53-0.06-0.75-0.18c-0.21-0.12-0.39-0.28-0.54-0.49
		c-0.15-0.21-0.26-0.44-0.33-0.72C64.3,38.95,64.26,38.66,64.26,38.34z M65.27,32.79c0-0.08-0.04-0.17-0.1-0.23
		c-0.07-0.07-0.14-0.1-0.23-0.1s-0.17,0.04-0.22,0.1c-0.07,0.07-0.09,0.14-0.09,0.23c0,0.08,0.03,0.17,0.09,0.22
		c0.07,0.07,0.14,0.09,0.22,0.09s0.17-0.03,0.23-0.09C65.23,32.95,65.27,32.88,65.27,32.79z"/>
	<path d="M69.38,36.72c-0.04,0.1-0.08,0.21-0.14,0.35c-0.06,0.13-0.11,0.26-0.19,0.4c-0.06,0.1-0.11,0.19-0.18,0.25
		c-0.06,0.06-0.14,0.09-0.23,0.09c-0.11,0-0.2-0.04-0.25-0.1c-0.07-0.07-0.09-0.14-0.09-0.23c0-0.03,0-0.06,0.01-0.08
		c0.01-0.02,0.02-0.06,0.05-0.11c0.17-0.32,0.29-0.59,0.36-0.83c0.07-0.23,0.14-0.49,0.2-0.75c-0.05-0.15-0.07-0.27-0.09-0.37
		c-0.02-0.1-0.03-0.21-0.03-0.31c0-0.21,0.05-0.37,0.13-0.5c0.08-0.13,0.21-0.2,0.37-0.2c0.15,0,0.26,0.07,0.35,0.19
		c0.08,0.13,0.13,0.28,0.13,0.47c0,0.1-0.01,0.21-0.03,0.3c-0.02,0.1-0.05,0.22-0.07,0.38c0.15,0.36,0.29,0.68,0.44,0.95
		c0.15,0.28,0.27,0.53,0.39,0.77c0.11,0.23,0.21,0.45,0.28,0.64c0.07,0.21,0.11,0.4,0.11,0.61c0,0.26-0.06,0.51-0.16,0.76
		c-0.11,0.24-0.28,0.44-0.53,0.61C70.23,40,70.27,40,70.3,40c0.03,0,0.07,0,0.09,0c0.36,0,0.69-0.08,0.99-0.24
		c0.3-0.17,0.58-0.37,0.82-0.63c0.24-0.26,0.46-0.55,0.64-0.87c0.19-0.32,0.35-0.63,0.49-0.95c0.07-0.15,0.15-0.21,0.26-0.21
		c0.1,0,0.19,0.04,0.25,0.11c0.06,0.07,0.09,0.16,0.09,0.24c0,0.05-0.01,0.09-0.03,0.14c-0.07,0.17-0.16,0.36-0.27,0.58
		c-0.11,0.21-0.24,0.44-0.4,0.67c-0.16,0.23-0.34,0.46-0.53,0.67c-0.21,0.22-0.43,0.42-0.67,0.59c-0.25,0.18-0.52,0.31-0.82,0.42
		c-0.3,0.1-0.63,0.16-0.97,0.16c-0.42,0-0.81-0.07-1.18-0.22c-0.36-0.15-0.65-0.39-0.89-0.74c-0.04-0.06-0.06-0.11-0.06-0.18
		c0-0.09,0.04-0.18,0.11-0.25c0.07-0.07,0.16-0.11,0.25-0.11c0.1,0,0.19,0.04,0.25,0.1c0.01,0.01,0.03,0.04,0.07,0.07
		s0.08,0.06,0.14,0.09c0.06,0.04,0.11,0.07,0.19,0.09c0.07,0.03,0.15,0.04,0.22,0.04c0.15,0,0.28-0.03,0.38-0.09
		c0.1-0.07,0.19-0.14,0.25-0.23c0.07-0.09,0.11-0.19,0.14-0.29c0.03-0.1,0.05-0.2,0.05-0.27c0-0.16-0.03-0.32-0.07-0.48
		s-0.11-0.32-0.2-0.48c-0.07-0.16-0.17-0.32-0.25-0.49C69.58,37.07,69.46,36.9,69.38,36.72z"/>
	<path d="M73.99,39.41c0.1-0.21,0.21-0.45,0.35-0.7c0.13-0.25,0.27-0.5,0.43-0.77c0.15-0.26,0.31-0.52,0.49-0.78
		c0.17-0.26,0.35-0.5,0.53-0.73c0.19-0.22,0.36-0.38,0.55-0.48c0.19-0.09,0.36-0.15,0.52-0.15c0.16,0,0.31,0.04,0.43,0.1
		c0.12,0.07,0.22,0.16,0.3,0.27c0.07,0.11,0.14,0.24,0.18,0.4c0.04,0.15,0.07,0.32,0.07,0.49c0,0.15-0.02,0.34-0.05,0.58
		c-0.03,0.24-0.05,0.49-0.05,0.77c0,0.15,0.01,0.3,0.03,0.45c0.02,0.15,0.05,0.28,0.08,0.4c0.04,0.12,0.1,0.21,0.19,0.28
		c0.08,0.07,0.19,0.11,0.32,0.11c0.15,0,0.3-0.05,0.46-0.13c0.15-0.08,0.3-0.2,0.45-0.34s0.28-0.3,0.42-0.48
		c0.13-0.18,0.25-0.35,0.36-0.52c0.1-0.18,0.21-0.34,0.28-0.5c0.08-0.16,0.15-0.3,0.2-0.4c0.07-0.15,0.18-0.21,0.33-0.21
		c0.1,0,0.2,0.04,0.25,0.11c0.07,0.07,0.09,0.16,0.09,0.24c0,0.05-0.01,0.09-0.03,0.14c-0.03,0.05-0.07,0.16-0.15,0.31
		c-0.07,0.16-0.17,0.34-0.29,0.55c-0.12,0.21-0.27,0.43-0.43,0.65c-0.17,0.22-0.35,0.44-0.54,0.63c-0.2,0.2-0.41,0.35-0.64,0.48
		s-0.48,0.19-0.73,0.19c-0.29,0-0.52-0.07-0.7-0.19c-0.18-0.12-0.32-0.28-0.41-0.47c-0.09-0.19-0.17-0.4-0.2-0.63
		c-0.04-0.23-0.06-0.46-0.06-0.68c0-0.11,0-0.23,0.02-0.36c0.02-0.13,0.02-0.26,0.04-0.38c0.01-0.13,0.03-0.24,0.04-0.35
		c0.01-0.11,0.02-0.21,0.02-0.28c0-0.2-0.03-0.33-0.08-0.4c-0.06-0.07-0.11-0.1-0.19-0.1c-0.1,0-0.21,0.06-0.35,0.18
		c-0.13,0.12-0.26,0.27-0.41,0.46c-0.14,0.19-0.28,0.4-0.43,0.63c-0.14,0.23-0.28,0.48-0.41,0.71c-0.13,0.23-0.25,0.46-0.36,0.66
		c-0.1,0.21-0.2,0.38-0.26,0.52c-0.13,0.26-0.27,0.45-0.4,0.53c-0.14,0.09-0.26,0.14-0.36,0.14c-0.2,0-0.35-0.07-0.45-0.23
		c-0.1-0.16-0.16-0.35-0.16-0.56v-0.6c0-1.2,0-2.33,0-3.41c0-1.08,0.02-2.09,0.05-3.02c0.03-0.93,0.07-1.77,0.14-2.53
		c0.07-0.76,0.17-1.4,0.3-1.93c0.13-0.53,0.3-0.94,0.5-1.23c0.21-0.29,0.47-0.44,0.78-0.44c0.26,0,0.49,0.07,0.67,0.21
		c0.19,0.15,0.33,0.35,0.45,0.59c0.11,0.25,0.2,0.54,0.24,0.87c0.05,0.33,0.07,0.68,0.07,1.05c0,0.75-0.07,1.48-0.21,2.19
		s-0.32,1.42-0.54,2.1c-0.22,0.68-0.49,1.34-0.79,1.99c-0.3,0.64-0.63,1.28-0.95,1.89c0,0.11,0,0.25,0,0.41s0,0.32,0,0.48
		s0,0.31,0,0.45s0,0.25,0,0.33L73.99,39.41z M73.99,35.92c0.26-0.58,0.5-1.15,0.73-1.7c0.21-0.55,0.4-1.1,0.56-1.65
		c0.16-0.55,0.28-1.1,0.36-1.67c0.08-0.56,0.13-1.16,0.13-1.76c0-0.1-0.01-0.26-0.02-0.49c-0.01-0.22-0.04-0.45-0.08-0.67
		c-0.05-0.22-0.12-0.43-0.21-0.6c-0.09-0.17-0.23-0.25-0.41-0.25c-0.14,0-0.26,0.09-0.36,0.28c-0.1,0.19-0.19,0.44-0.26,0.76
		c-0.07,0.32-0.14,0.69-0.19,1.11c-0.05,0.42-0.09,0.87-0.12,1.34c-0.03,0.48-0.06,0.96-0.07,1.46c-0.02,0.49-0.03,0.98-0.04,1.46
		s-0.01,0.91-0.01,1.32C73.99,35.27,73.99,35.62,73.99,35.92z"/>
	<path d="M92.45,30.75c0,0.1-0.04,0.18-0.1,0.24c-0.07,0.06-0.16,0.09-0.25,0.09h-4.8v0.1c0,0.38-0.03,0.79-0.08,1.23
		c-0.06,0.44-0.13,0.87-0.23,1.3c-0.09,0.43-0.21,0.85-0.34,1.26c-0.12,0.41-0.25,0.78-0.38,1.14c-0.13,0.35-0.26,0.64-0.38,0.91
		c-0.13,0.25-0.24,0.45-0.35,0.57c0.08,0.29,0.18,0.56,0.29,0.81c0.11,0.25,0.24,0.47,0.38,0.65c0.14,0.19,0.3,0.34,0.46,0.44
		c0.17,0.11,0.34,0.16,0.53,0.16c0.22,0,0.44-0.09,0.65-0.28c0.21-0.19,0.42-0.41,0.61-0.66c0.19-0.25,0.35-0.51,0.49-0.78
		c0.14-0.26,0.24-0.48,0.31-0.63c0.07-0.15,0.18-0.22,0.33-0.22c0.1,0,0.2,0.04,0.26,0.11c0.07,0.07,0.1,0.16,0.1,0.24
		c0,0.05-0.01,0.08-0.03,0.13c-0.02,0.05-0.07,0.15-0.14,0.3c-0.07,0.15-0.17,0.34-0.28,0.55c-0.11,0.21-0.25,0.43-0.41,0.65
		c-0.16,0.23-0.33,0.44-0.52,0.63c-0.2,0.19-0.4,0.35-0.62,0.48c-0.21,0.13-0.46,0.19-0.7,0.19c-0.44,0-0.83-0.14-1.18-0.43
		c-0.35-0.28-0.64-0.68-0.89-1.2c-0.24-0.51-0.43-1.12-0.55-1.82c-0.13-0.7-0.19-1.47-0.19-2.3c0-0.21,0-0.45,0.01-0.74
		c0.01-0.28,0.02-0.58,0.04-0.89c0.02-0.31,0.05-0.63,0.08-0.96c0.04-0.33,0.08-0.65,0.15-0.97h-3.38c-0.1,0-0.19-0.03-0.25-0.09
		c-0.07-0.06-0.1-0.14-0.1-0.24c0-0.1,0.04-0.18,0.1-0.24c0.07-0.06,0.16-0.09,0.25-0.09h3.56c0.07-0.22,0.14-0.44,0.22-0.63
		c0.08-0.19,0.19-0.35,0.29-0.49c0.11-0.14,0.23-0.24,0.37-0.33s0.29-0.12,0.45-0.12s0.3,0.04,0.41,0.12s0.21,0.19,0.3,0.33
		s0.15,0.3,0.2,0.49c0.05,0.19,0.08,0.4,0.11,0.63h4.84c0.1,0,0.19,0.03,0.25,0.09C92.43,30.56,92.45,30.64,92.45,30.75z
		 M85.33,36.64c0.19-0.42,0.36-0.87,0.51-1.34c0.16-0.49,0.29-0.97,0.4-1.47c0.11-0.49,0.2-0.97,0.25-1.45
		c0.06-0.48,0.09-0.91,0.09-1.31h-1.12c-0.08,0.39-0.16,0.88-0.21,1.46c-0.05,0.58-0.07,1.28-0.07,2.1c0,0.46,0.01,0.85,0.04,1.16
		C85.24,36.11,85.28,36.39,85.33,36.64z M86.21,29.56c-0.06,0-0.14,0.07-0.24,0.19c-0.11,0.12-0.21,0.35-0.32,0.66h0.91
		c-0.03-0.26-0.07-0.48-0.14-0.63C86.36,29.64,86.28,29.56,86.21,29.56z"/>
	<path d="M93.68,39.18c-0.16,0-0.3-0.01-0.42-0.04c-0.09,0.19-0.21,0.36-0.34,0.52c-0.13,0.16-0.29,0.3-0.46,0.42
		c-0.18,0.12-0.36,0.21-0.58,0.28c-0.21,0.07-0.45,0.1-0.7,0.1c-0.3,0-0.57-0.06-0.81-0.16c-0.24-0.1-0.46-0.25-0.64-0.44
		c-0.19-0.19-0.33-0.41-0.43-0.67c-0.1-0.26-0.15-0.55-0.15-0.87c0-0.4,0.07-0.76,0.21-1.06c0.15-0.3,0.31-0.55,0.5-0.75
		c0.19-0.2,0.38-0.35,0.57-0.45c0.19-0.09,0.33-0.15,0.43-0.15s0.19,0.03,0.24,0.08c0.06,0.06,0.08,0.13,0.08,0.22
		c0,0.1-0.04,0.19-0.1,0.24s-0.15,0.1-0.25,0.16c-0.1,0.05-0.21,0.12-0.32,0.21c-0.11,0.09-0.21,0.21-0.32,0.35
		c-0.09,0.14-0.18,0.3-0.24,0.49c-0.07,0.19-0.09,0.4-0.09,0.63c0,0.21,0.03,0.4,0.09,0.58c0.07,0.18,0.16,0.34,0.27,0.47
		c0.12,0.13,0.26,0.23,0.43,0.3c0.17,0.07,0.35,0.11,0.55,0.11c0.35,0,0.65-0.08,0.9-0.25c0.23-0.17,0.42-0.38,0.54-0.63
		c-0.37-0.2-0.68-0.48-0.92-0.83c-0.24-0.36-0.36-0.77-0.36-1.21c0-0.36,0.08-0.65,0.26-0.88c0.18-0.22,0.4-0.34,0.69-0.34
		c0.17,0,0.33,0.04,0.49,0.12c0.15,0.08,0.29,0.21,0.4,0.39c0.12,0.18,0.21,0.4,0.28,0.68c0.07,0.28,0.1,0.61,0.1,0.99
		c0,0.21-0.03,0.41-0.07,0.63c0.04,0.01,0.07,0.01,0.11,0.01c0.04,0,0.07,0,0.12,0c0.21,0,0.41-0.03,0.58-0.07
		c0.17-0.05,0.33-0.13,0.47-0.22c0.14-0.1,0.26-0.23,0.37-0.39c0.11-0.16,0.21-0.34,0.32-0.55c0.02-0.04,0.06-0.07,0.12-0.11
		c0.07-0.04,0.13-0.06,0.19-0.06c0.08,0,0.16,0.04,0.23,0.1c0.07,0.07,0.11,0.15,0.11,0.26c0,0.05-0.01,0.1-0.04,0.17
		c-0.03,0.06-0.05,0.11-0.07,0.17c-0.11,0.19-0.23,0.37-0.37,0.54c-0.14,0.18-0.31,0.33-0.5,0.46c-0.2,0.13-0.41,0.23-0.64,0.31
		C94.28,39.14,93.98,39.19,93.68,39.18z M92.06,36.8c0,0.12,0.02,0.24,0.05,0.38c0.03,0.13,0.08,0.26,0.15,0.39
		c0.07,0.13,0.15,0.25,0.24,0.37c0.09,0.12,0.21,0.21,0.35,0.3c0.02-0.13,0.03-0.26,0.03-0.39c0-0.17-0.01-0.35-0.04-0.52
		c-0.03-0.18-0.07-0.34-0.11-0.49s-0.1-0.27-0.18-0.36c-0.07-0.09-0.15-0.14-0.24-0.14c-0.04,0-0.08,0.03-0.15,0.08
		C92.09,36.48,92.06,36.6,92.06,36.8z"/>
	<path d="M98.58,39.16c-0.22,0.36-0.48,0.64-0.78,0.85c-0.29,0.21-0.59,0.31-0.89,0.31c-0.24,0-0.46-0.05-0.64-0.13
		c-0.19-0.08-0.35-0.21-0.49-0.37s-0.24-0.35-0.32-0.58c-0.07-0.22-0.11-0.49-0.11-0.77c0-0.44,0.05-0.83,0.13-1.18
		c0.08-0.34,0.18-0.63,0.28-0.86s0.24-0.47,0.42-0.71c0.03-0.04,0.07-0.07,0.12-0.08c0.05-0.02,0.09-0.03,0.15-0.03
		c0.1,0,0.19,0.04,0.25,0.11c0.07,0.07,0.1,0.16,0.1,0.25c0,0.04-0.01,0.07-0.03,0.11c-0.02,0.04-0.04,0.07-0.06,0.11
		c-0.03,0.06-0.08,0.14-0.15,0.26c-0.07,0.11-0.14,0.27-0.21,0.46c-0.07,0.19-0.14,0.41-0.2,0.66c-0.06,0.25-0.08,0.55-0.08,0.88
		c0,0.37,0.07,0.65,0.22,0.85c0.15,0.2,0.35,0.29,0.63,0.29c0.11,0,0.24-0.04,0.39-0.11c0.15-0.07,0.29-0.19,0.44-0.34
		c0.14-0.15,0.27-0.35,0.37-0.58c0.11-0.23,0.18-0.5,0.21-0.82l0.14-1.62c0.01-0.09,0.06-0.18,0.12-0.23
		c0.07-0.07,0.15-0.09,0.24-0.09c0.1,0,0.2,0.04,0.25,0.12c0.07,0.07,0.09,0.17,0.09,0.27l-0.12,1.57
		c-0.01,0.13-0.01,0.31,0.02,0.52c0.02,0.21,0.07,0.43,0.14,0.63c0.07,0.21,0.18,0.38,0.31,0.53c0.14,0.15,0.32,0.22,0.55,0.22
		c0.17,0,0.33-0.05,0.49-0.13c0.16-0.08,0.31-0.2,0.46-0.34c0.15-0.14,0.28-0.3,0.4-0.47c0.12-0.18,0.23-0.35,0.35-0.52
		c0.1-0.18,0.2-0.35,0.27-0.5c0.07-0.16,0.14-0.3,0.19-0.41c0.03-0.07,0.07-0.12,0.13-0.16s0.12-0.06,0.19-0.06
		c0.11,0,0.21,0.04,0.26,0.11s0.09,0.16,0.09,0.24c0,0.05-0.01,0.09-0.03,0.14c-0.03,0.05-0.07,0.16-0.15,0.32
		c-0.07,0.16-0.17,0.35-0.28,0.55c-0.12,0.21-0.26,0.42-0.42,0.64c-0.17,0.22-0.35,0.44-0.55,0.63c-0.21,0.2-0.42,0.35-0.65,0.48
		c-0.23,0.12-0.49,0.19-0.77,0.19c-0.37,0-0.68-0.1-0.92-0.32C98.89,39.85,98.7,39.55,98.58,39.16z"/>
	<path d="M108.42,37.6c-0.04,0.07-0.1,0.2-0.2,0.38s-0.21,0.39-0.37,0.62c-0.16,0.23-0.34,0.47-0.55,0.72
		c-0.21,0.24-0.46,0.48-0.74,0.67c-0.28,0.21-0.59,0.37-0.93,0.5c-0.35,0.13-0.72,0.2-1.12,0.2c-0.36,0-0.68-0.07-0.95-0.2
		c-0.28-0.13-0.51-0.31-0.71-0.55c-0.2-0.23-0.35-0.51-0.45-0.84c-0.1-0.32-0.15-0.68-0.15-1.07c0-0.38,0.06-0.74,0.16-1.06
		c0.1-0.33,0.25-0.62,0.44-0.87c0.19-0.25,0.4-0.44,0.64-0.58s0.5-0.21,0.78-0.21c0.21,0,0.4,0.04,0.57,0.11
		c0.17,0.07,0.32,0.17,0.43,0.29c0.11,0.12,0.21,0.25,0.27,0.4c0.07,0.15,0.1,0.29,0.1,0.44c0,0.14-0.02,0.27-0.06,0.39
		c-0.04,0.12-0.07,0.22-0.13,0.32s-0.11,0.17-0.19,0.21c-0.07,0.06-0.14,0.08-0.21,0.08c-0.11,0-0.2-0.04-0.26-0.1
		c-0.07-0.07-0.1-0.16-0.1-0.25c0-0.05,0.01-0.09,0.04-0.13c0.02-0.04,0.05-0.07,0.07-0.12c0.03-0.04,0.06-0.09,0.07-0.15
		c0.02-0.06,0.04-0.14,0.04-0.23c0-0.13-0.07-0.25-0.19-0.36c-0.12-0.11-0.28-0.16-0.47-0.16c-0.18,0-0.35,0.06-0.5,0.16
		c-0.16,0.1-0.3,0.25-0.42,0.43c-0.12,0.18-0.21,0.39-0.29,0.63c-0.07,0.24-0.11,0.5-0.11,0.78c0,0.26,0.03,0.5,0.09,0.74
		c0.07,0.23,0.16,0.44,0.28,0.62c0.13,0.18,0.29,0.33,0.48,0.43c0.2,0.11,0.42,0.16,0.69,0.16c0.35,0,0.65-0.07,0.94-0.19
		c0.29-0.12,0.55-0.28,0.79-0.47c0.24-0.19,0.45-0.39,0.63-0.62c0.19-0.22,0.34-0.44,0.47-0.63s0.23-0.37,0.3-0.52
		c0.07-0.15,0.11-0.24,0.13-0.28c0.03-0.07,0.07-0.11,0.13-0.15c0.07-0.04,0.12-0.06,0.2-0.06c0.1,0,0.2,0.04,0.26,0.11
		c0.07,0.07,0.1,0.16,0.1,0.25C108.46,37.49,108.44,37.54,108.42,37.6z"/>
	<path d="M108.52,39.41c0.1-0.21,0.21-0.45,0.35-0.7c0.13-0.25,0.27-0.5,0.43-0.77c0.15-0.26,0.31-0.52,0.49-0.78
		c0.17-0.26,0.35-0.5,0.53-0.73c0.19-0.22,0.36-0.38,0.55-0.48c0.19-0.09,0.36-0.15,0.52-0.15c0.16,0,0.31,0.04,0.43,0.1
		c0.12,0.07,0.22,0.16,0.3,0.27c0.07,0.11,0.14,0.24,0.18,0.4c0.04,0.15,0.07,0.32,0.07,0.49c0,0.15-0.02,0.34-0.05,0.58
		c-0.03,0.24-0.05,0.49-0.05,0.77c0,0.15,0.01,0.3,0.03,0.45c0.02,0.15,0.05,0.28,0.08,0.4c0.04,0.12,0.1,0.21,0.19,0.28
		c0.08,0.07,0.19,0.11,0.32,0.11c0.15,0,0.3-0.05,0.46-0.13c0.15-0.08,0.3-0.2,0.45-0.34s0.28-0.3,0.42-0.48
		c0.13-0.18,0.25-0.35,0.36-0.52c0.1-0.18,0.21-0.34,0.28-0.5c0.08-0.16,0.15-0.3,0.2-0.4c0.07-0.15,0.18-0.21,0.33-0.21
		c0.1,0,0.2,0.04,0.25,0.11c0.07,0.07,0.09,0.16,0.09,0.24c0,0.05-0.01,0.09-0.03,0.14c-0.03,0.05-0.07,0.16-0.15,0.31
		c-0.07,0.16-0.17,0.34-0.29,0.55c-0.12,0.21-0.27,0.43-0.43,0.65c-0.17,0.22-0.35,0.44-0.54,0.63c-0.2,0.2-0.41,0.35-0.64,0.48
		s-0.48,0.19-0.73,0.19c-0.29,0-0.52-0.07-0.7-0.19c-0.18-0.12-0.32-0.28-0.41-0.47c-0.09-0.19-0.17-0.4-0.2-0.63
		c-0.04-0.23-0.06-0.46-0.06-0.68c0-0.11,0-0.23,0.02-0.36c0.01-0.13,0.02-0.26,0.04-0.38c0.01-0.13,0.03-0.24,0.04-0.35
		c0.01-0.11,0.02-0.21,0.02-0.28c0-0.2-0.03-0.33-0.08-0.4c-0.06-0.07-0.11-0.1-0.19-0.1c-0.1,0-0.21,0.06-0.35,0.18
		c-0.13,0.12-0.26,0.27-0.41,0.46c-0.14,0.19-0.28,0.4-0.43,0.63c-0.14,0.23-0.28,0.48-0.41,0.71c-0.13,0.23-0.25,0.46-0.36,0.66
		c-0.1,0.21-0.2,0.38-0.26,0.52c-0.13,0.26-0.27,0.45-0.4,0.53c-0.14,0.09-0.26,0.14-0.36,0.14c-0.2,0-0.35-0.07-0.45-0.23
		c-0.1-0.16-0.16-0.35-0.16-0.56v-0.6c0-1.2,0-2.33,0-3.41c0-1.08,0.02-2.09,0.05-3.02c0.03-0.93,0.07-1.77,0.14-2.53
		c0.07-0.76,0.17-1.4,0.3-1.93c0.13-0.53,0.3-0.94,0.5-1.23c0.21-0.29,0.47-0.44,0.78-0.44c0.26,0,0.49,0.07,0.67,0.21
		c0.19,0.15,0.33,0.35,0.45,0.59c0.11,0.25,0.2,0.54,0.24,0.87c0.05,0.33,0.07,0.68,0.07,1.05c0,0.75-0.07,1.48-0.21,2.19
		s-0.32,1.42-0.54,2.1c-0.22,0.68-0.49,1.34-0.79,1.99c-0.3,0.64-0.63,1.28-0.95,1.89c0,0.11,0,0.25,0,0.41s0,0.32,0,0.48
		s0,0.31,0,0.45s0,0.25,0,0.33L108.52,39.41z M108.52,35.92c0.26-0.58,0.5-1.15,0.73-1.7c0.21-0.55,0.4-1.1,0.56-1.65
		c0.16-0.55,0.28-1.1,0.36-1.67c0.08-0.56,0.13-1.16,0.13-1.76c0-0.1-0.01-0.26-0.02-0.49c-0.01-0.22-0.04-0.45-0.08-0.67
		c-0.05-0.22-0.12-0.43-0.21-0.6c-0.09-0.17-0.23-0.25-0.41-0.25c-0.14,0-0.26,0.09-0.36,0.28c-0.1,0.19-0.19,0.44-0.26,0.76
		s-0.14,0.69-0.19,1.11c-0.05,0.42-0.09,0.87-0.12,1.34c-0.03,0.48-0.06,0.96-0.07,1.46c-0.02,0.49-0.03,0.98-0.04,1.46
		c-0.01,0.47-0.01,0.91-0.01,1.32C108.52,35.27,108.52,35.62,108.52,35.92z"/>
</g>
<g>
	<g>
		<path class="st0" d="M7.6,21.78c2.45,1.61,4.19,3.8,4.46,4.73c0.23-0.92,2.18-3.17,4.44-4.77c2.47-1.76,6.32-3.2,6.28-7.34
			c-0.06-7.55-8.1-8.74-10.75-2.51C9.27,5.4,1.36,6.91,1.32,14.44C1.29,18.58,5.08,20.12,7.6,21.78z M21.76,28.64
			c0.45-4.71-4.67-6.35-7.12-1.94c-1.34,2.43,0.38,4.55,1.34,6.33c0.92,1.73,1.24,3.58,1.1,4.21c0.43-0.47,2.29-1.17,4.14-1.38
			c2.02-0.23,4.72,0.14,6.03-2.3C29.64,29.1,25.31,25.83,21.76,28.64z M7.65,35.78c-2.82-2.54-6.35-0.03-4.68,3.65
			c0.92,2.02,3.12,1.92,4.72,2.17c1.56,0.23,2.9,0.92,3.25,1.31c-0.09-0.49,0.35-2.03,1.1-3.31c0.82-1.41,2.37-2.97,1.43-4.98
			C11.75,30.93,7.55,32.15,7.65,35.78z"/>
	</g>
</g>
</svg>
